<?xml version="1.0" encoding="UTF-8"?>
<svg id="Layer_2" data-name="Layer 2" xmlns="http://www.w3.org/2000/svg" viewBox="0 0 57.25 24">
  <defs>
    <style>
      .cls-1 {
        fill: #245d38;
      }

      .cls-1, .cls-2, .cls-3, .cls-4, .cls-5, .cls-6, .cls-7, .cls-8, .cls-9 {
        stroke-width: 0px;
      }

      .cls-2 {
        fill: #7a853b;
      }

      .cls-3 {
        fill: #001970;
      }

      .cls-4 {
        fill: #c3002f;
      }

      .cls-5 {
        fill: #000;
      }

      .cls-6 {
        fill: #ffd100;
      }

      .cls-7 {
        fill: #6d3a5d;
      }

      .cls-8 {
        fill: #fff;
      }

      .cls-9 {
        fill: #35647e;
      }
    </style>
  </defs>
  <g id="Layer_1-2" data-name="Layer 1">
    <g>
      <g>
        <g>
          <g>
            <path class="cls-4" d="M57.24,12.37c0-.12,0-.24,0-.36C57.25,5.39,51.88.03,45.26.03s-11.99,5.37-11.99,11.99c0,.12,0,.24,0,.36l11.98,4.86,11.98-4.86Z"/>
            <path class="cls-3" d="M45.26,17.96l-.13-.05-11.81-4.8c.56,6.1,5.69,10.89,11.93,10.89s11.38-4.78,11.93-10.89l-11.93,4.85Z"/>
          </g>
          <g>
            <path class="cls-8" d="M41.44,18.73c.4,0,.7.13.98.38.04.03.04.08,0,.11l-.31.33s-.07.03-.1,0c-.15-.13-.35-.21-.54-.21-.46,0-.79.38-.79.83s.34.82.79.82c.19,0,.4-.07.54-.19.03-.02.08-.02.11,0l.31.33s.02.08,0,.11c-.27.27-.62.39-.98.39-.81,0-1.46-.64-1.46-1.45s.65-1.46,1.46-1.46Z"/>
            <path class="cls-8" d="M43.15,18.85s.03-.08.07-.08h.98c.78,0,1.42.63,1.42,1.41s-.64,1.42-1.42,1.42h-.98s-.07-.04-.07-.08v-2.67ZM44.16,21c.46,0,.79-.36.79-.82s-.33-.82-.79-.82h-.39v1.63h.39Z"/>
            <path class="cls-8" d="M46.36,18.85s.03-.08.08-.08h.48s.08.04.08.08v2.15h.96s.08.04.08.08v.44s-.03.08-.08.08h-1.52s-.08-.04-.08-.08v-2.67Z"/>
            <path class="cls-8" d="M48.66,18.85s.03-.08.08-.08h1.67s.08.04.08.08v.44s-.03.08-.08.08h-1.12v.5h.92s.08.04.08.08v.44s-.04.08-.08.08h-.92v.54h1.12s.08.04.08.08v.44s-.03.08-.08.08h-1.67s-.08-.04-.08-.08v-2.67Z"/>
          </g>
        </g>
        <g>
          <polygon class="cls-8" points="46.02 3.93 44.73 6.47 43.88 6.79 43.88 3.45 45.01 2.97 46.02 3.93"/>
          <polygon class="cls-8" points="43.21 4.08 43.21 7.04 41.46 7.7 41.46 5.04 43.21 4.08"/>
          <polygon class="cls-8" points="40.8 5.89 40.8 7.95 39.81 8.32 39.81 6.37 40.8 5.89"/>
          <path class="cls-8" d="M46.6,9.72c0,.1,0,.19-.03.28-.12.61-.66,1.06-1.31,1.06s-1.18-.45-1.31-1.06c-.02-.09-.03-.19-.03-.28h-4.11v.54c0,.06.05.11.11.12l1.24.24c.11.49.3.96.58,1.39l-.63.94s-.04.12,0,.16l.76.76s.11.04.15,0l.94-.63c.44.29.91.49,1.41.59l.24,1.24c0,.06.06.11.12.11h1.08c.06,0,.11-.05.12-.11l.24-1.24c.49-.11.96-.3,1.39-.58l.93.63s.12.03.16,0l.76-.75s.05-.11,0-.16l-.63-.93c.29-.44.48-.92.59-1.41l1.24-.24c.06,0,.11-.06.11-.12v-.54h-4.11Z"/>
          <polygon class="cls-8" points="50.71 9.05 39.81 9.05 45.19 7.03 46.53 4.39 46.98 3.52 48.21 6.78 49.17 5.02 50.71 9.05"/>
        </g>
      </g>
      <g>
        <g>
          <path class="cls-1" d="M10.53,19.53c-.37-.46-.7-.94-1-1.45-.02-.02-.04-.05-.06-.08-.22-.4-.43-.81-.61-1.23-.05-.13-.11-.25-.15-.38-.63-1.61-.9-3.27-.81-4.99.1-1.88.62-3.64,1.55-5.27,0-.02.01-.05.03-.08.26-.41.52-.82.81-1.2-.13-.24-.28-.49-.43-.77-.95-1.69-1.43-2.5-2.38-4.07-.95,1.6-1.43,2.42-2.38,4.14-.95,1.66-1.42,2.52-2.36,4.3.77-.2,1.16-.28,1.94-.4-.2.49-.3.73-.5,1.23-1.13,2.24-2.2,4.52-3.22,6.81.79-.29,1.2-.42,2.01-.62-1.02,2.47-2.01,4.94-2.97,7.44,5.25-1.81,9.53-1.83,14.79-.05-1.08-.5-2.09-1.18-3.03-2.03-.44-.4-.85-.84-1.23-1.31Z"/>
          <path class="cls-6" d="M19.91,6.22c-1.74,0-3.38.77-4.49,2.1l-.03.03c-.85,1.03-1.33,2.35-1.33,3.71,0,.06,0,.11,0,.16l3.54-3.09,2.42,2.11,2.42-2.11,3.31,2.89c0-.77-.16-1.51-.45-2.21-.91-2.18-3.02-3.6-5.39-3.6Z"/>
          <path class="cls-4" d="M9.44,6.12c-.93,1.63-1.45,3.39-1.55,5.27-.08,1.72.19,3.39.81,4.99.05.13.1.25.15.38l4.58-3.99c0-.08-.02-.16-.02-.25-.01-.14-.02-.3-.02-.47,0-1.51.53-2.98,1.49-4.14l.03-.03c1.23-1.48,3.06-2.34,5-2.34,2.64,0,5,1.57,6.01,4.01,0,0,0,0,0,0,1.61-.65,3.23-1.31,4.84-1.95.11-.05.14-.08.08-.2-.2-.46-.43-.91-.67-1.36-.02-.04-.05-.08-.07-.11C27.93,2.43,24.78.49,20.67.1c-1.18-.11-2.35,0-3.51.27-2.73.64-4.98,2.07-6.73,4.27-.05.06-.1.13-.15.2-.29.39-.55.79-.81,1.2-.01.02-.02.05-.03.08Z"/>
          <path class="cls-2" d="M17.61,9.14l-3.54,3.09c0,.09,0,.17.01.25.06.92.35,1.82.82,2.6.1.16.18.29.27.4l4.85-4.23-2.42-2.11Z"/>
          <path class="cls-7" d="M14.34,15.44c-.5-.82-.8-1.73-.9-2.67l-4.58,3.99c.18.42.39.83.61,1.23.02.02.04.05.06.08.3.51.63,1,1,1.45l.18-.15,3.96-3.46s-.01-.02-.02-.02c-.09-.13-.19-.27-.3-.45Z"/>
          <path class="cls-3" d="M30.71,16.42c-1.58-.64-3.17-1.28-4.75-1.92,0,0,0,0,0,0-.18.44-.41.87-.68,1.26-1.22,1.76-3.22,2.81-5.36,2.81s-4.02-.99-5.25-2.66l-3.96,3.46-.18.15c.38.46.78.9,1.23,1.31.94.85,1.95,1.52,3.03,2.03,1.45.68,3.03,1.05,4.73,1.1,1.23.05,2.44-.12,3.63-.47,2.32-.68,4.26-1.95,5.83-3.8.1-.12.2-.25.3-.38.32-.42.62-.87.89-1.32.23-.42.45-.85.64-1.29.01-.05.03-.08.04-.1v-.04s0-.06,0-.06c-.02-.03-.07-.05-.15-.08Z"/>
          <path class="cls-9" d="M20.03,11.25l4.64,4.05.07.06c.24-.35.44-.72.59-1.1.28-.69.43-1.43.43-2.19,0-.01,0-.02,0-.04l-3.31-2.89-2.42,2.11Z"/>
          <path class="cls-3" d="M20.03,11.25l-4.85,4.23s.01.01.02.02c1.1,1.51,2.86,2.41,4.72,2.41s3.71-.94,4.8-2.52c0-.01.01-.02.02-.03l-.07-.06-4.64-4.05Z"/>
        </g>
        <g>
          <path class="cls-5" d="M26.98,22.75h-.26s-.03-.01-.03-.03v-.14s.01-.03.03-.03h.73s.03.01.03.03v.14s-.01.03-.03.03h-.26v.94s-.01.03-.03.03h-.16s-.03-.02-.03-.03v-.94Z"/>
          <path class="cls-5" d="M27.93,22.55s.01-.03.03-.03h.03s.02,0,.03.02l.37.79h0l.37-.79s.01-.02.03-.02h.03s.03.01.03.03l.2,1.13s0,.04-.03.04h-.15s-.03-.01-.03-.03l-.1-.64h0l-.29.66s-.01.02-.03.02h-.03s-.02,0-.03-.02l-.3-.66h0l-.1.64s-.01.03-.03.03h-.15s-.04-.02-.03-.04l.2-1.13Z"/>
        </g>
      </g>
    </g>
  </g>
</svg>