<?xml version="1.0" encoding="UTF-8"?>
<svg id="Layer_2" data-name="Layer 2" xmlns="http://www.w3.org/2000/svg" viewBox="0 0 579.2 104.76">
  <defs>
    <style>
      .cls-1 {
        fill: #245d38;
      }

      .cls-1, .cls-2, .cls-3, .cls-4, .cls-5, .cls-6, .cls-7, .cls-8, .cls-9 {
        stroke-width: 0px;
      }

      .cls-2 {
        fill: #7a853b;
      }

      .cls-3 {
        fill: #001970;
      }

      .cls-4 {
        fill: #c3002f;
      }

      .cls-5 {
        fill: #000;
      }

      .cls-6 {
        fill: #ffd100;
      }

      .cls-7 {
        fill: #6d3a5d;
      }

      .cls-8 {
        fill: #fff;
      }

      .cls-9 {
        fill: #35647e;
      }
    </style>
  </defs>
  <g id="Layer_1-2" data-name="Layer 1">
    <g>
      <g>
        <path class="cls-5" d="M269.51,67.45h2.29v-13.85h-2.29v-2.67h8.29c1.54,0,2.75.08,4,.46,3.72,1.11,6.21,4.4,6.21,9.12s-2.29,7.8-5.94,9.02c-1.3.46-2.65.57-4.24.57h-8.31v-2.65ZM277.67,67.26c1.21,0,2.19-.11,3.13-.49,2.19-.89,3.56-3.13,3.56-6.26s-1.46-5.45-3.7-6.32c-.97-.38-1.86-.43-3-.43h-2.32v13.5h2.32Z"/>
        <path class="cls-5" d="M296.92,56c3.97,0,6.13,2.89,6.13,6.53,0,.4-.08,1.16-.08,1.16h-9.53c.22,2.54,2.05,3.83,4.13,3.83,2.24,0,4-1.46,4-1.46l1.32,2.43s-2.11,1.92-5.56,1.92c-4.56,0-7.4-3.29-7.4-7.21,0-4.24,2.86-7.21,6.99-7.21ZM299.51,61.67c-.05-1.89-1.21-3.02-2.67-3.02-1.75,0-3,1.21-3.32,3.02h5.99Z"/>
        <path class="cls-5" d="M306.69,72.93v-13.44c0-.38-.22-.59-.59-.59h-1.54v-2.56h3.54c1.27,0,1.7.59,1.7,1.3v.08c0,.32-.03.62-.03.62h.05s1.19-2.32,4.43-2.32c3.73,0,6.1,2.94,6.1,7.21s-2.67,7.21-6.29,7.21c-2.73,0-3.97-1.94-3.97-1.94h-.05s.08.49.08,1.19v3.27h2v2.56h-7.42v-2.56h2ZM313.44,67.53c1.89,0,3.46-1.54,3.46-4.26s-1.4-4.32-3.43-4.32c-1.78,0-3.46,1.3-3.46,4.35,0,2.13,1.19,4.24,3.43,4.24Z"/>
        <path class="cls-5" d="M329.56,61.59h.86v-.46c0-1.75-1.11-2.38-2.54-2.38-2.05,0-3.89,1.32-3.89,1.32l-1.27-2.38s2.13-1.7,5.45-1.7c3.7,0,5.67,1.92,5.67,5.42v5.51c0,.41.22.59.59.59h1.24v2.56h-3.24c-1.27,0-1.75-.67-1.75-1.46v-.16c0-.43.08-.7.08-.7h-.05s-1.16,2.65-4.35,2.65c-2.35,0-4.56-1.38-4.56-4.18,0-4.21,5.53-4.64,7.75-4.64ZM327.26,67.85c1.86,0,3.18-2,3.18-3.73v-.46h-.57c-1.35,0-4.62.22-4.62,2.29,0,1.03.73,1.89,2,1.89Z"/>
        <path class="cls-5" d="M337.28,67.53h2v-8.04c0-.38-.22-.59-.59-.59h-1.54v-2.56h3.59c1.21,0,1.83.51,1.83,1.67v.81c0,.51-.05.86-.05.86h.05c.62-1.97,2.27-3.54,4.37-3.54.32,0,.62.05.62.05v3.37s-.35-.05-.84-.05c-2.78,0-4.02,2.43-4.02,5.02v3h1.97v2.56h-7.4v-2.56Z"/>
        <path class="cls-5" d="M350.43,58.89h-2.11v-2.56h2.21v-3.75h3.32v3.75h3.13v2.56h-3.13v5.8c0,2.35,1.78,2.67,2.75,2.67.38,0,.62-.03.62-.03v2.81s-.43.08-1.05.08c-1.94,0-5.75-.57-5.75-5.18v-6.15Z"/>
        <path class="cls-5" d="M359.04,67.53h2v-8.07c0-.38-.22-.57-.59-.57h-1.54v-2.56h3.59c1.21,0,1.81.57,1.81,1.54v.62c0,.3-.05.59-.05.59h.05c.7-1.4,2.43-3.08,4.7-3.08,1.92,0,3.29.89,3.83,3h.05c.76-1.62,2.59-3,4.78-3,2.78,0,4.43,1.62,4.43,5.24v6.29h2v2.56h-5.43v-8.21c0-1.57-.3-2.75-1.89-2.75-2.35,0-3.51,2.35-3.51,4.89v3.51h2v2.56h-5.4v-8.21c0-1.48-.24-2.75-1.86-2.75-2.43,0-3.54,2.56-3.54,5.05v3.35h1.97v2.56h-7.4v-2.56Z"/>
        <path class="cls-5" d="M392.39,56c3.97,0,6.13,2.89,6.13,6.53,0,.4-.08,1.16-.08,1.16h-9.53c.22,2.54,2.05,3.83,4.13,3.83,2.24,0,4-1.46,4-1.46l1.32,2.43s-2.11,1.92-5.56,1.92c-4.56,0-7.4-3.29-7.4-7.21,0-4.24,2.86-7.21,6.99-7.21ZM394.98,61.67c-.05-1.89-1.21-3.02-2.67-3.02-1.75,0-3,1.21-3.32,3.02h5.99Z"/>
        <path class="cls-5" d="M400.49,67.53h2v-8.04c0-.38-.22-.59-.59-.59h-1.54v-2.56h3.62c1.21,0,1.78.57,1.78,1.54v.62c0,.3-.05.59-.05.59h.05c.16-.43,1.62-3.08,5.08-3.08,2.94,0,4.62,1.59,4.62,5.24v6.29h2v2.56h-5.4v-8.15c0-1.67-.46-2.81-2.19-2.81-2.48,0-3.94,2.38-3.94,4.78v3.62h1.97v2.56h-7.4v-2.56Z"/>
        <path class="cls-5" d="M420.44,58.89h-2.11v-2.56h2.21v-3.75h3.32v3.75h3.13v2.56h-3.13v5.8c0,2.35,1.78,2.67,2.75,2.67.38,0,.62-.03.62-.03v2.81s-.43.08-1.05.08c-1.94,0-5.75-.57-5.75-5.18v-6.15Z"/>
        <path class="cls-5" d="M442.77,56c4.21,0,7.58,3,7.58,7.21s-3.37,7.21-7.56,7.21-7.58-2.97-7.58-7.21,3.37-7.21,7.56-7.21ZM442.8,67.5c2.21,0,4.08-1.73,4.08-4.29s-1.86-4.29-4.08-4.29-4.1,1.75-4.1,4.29,1.86,4.29,4.1,4.29Z"/>
        <path class="cls-5" d="M452.25,67.53h2v-8.64h-2.13v-2.56h2.13v-.62c0-4.45,3.56-5.02,5.4-5.02.81,0,1.4.11,1.4.11v2.75s-.35-.08-1.05-.08c-.78,0-2.32.16-2.32,2.16v.7h3.1v2.56h-3.1v8.64h2.32v2.56h-7.75v-2.56Z"/>
        <path class="cls-5" d="M269.54,96.45h2.29v-13.69h-2.29v-2.83h8.15v2.83h-2.32v13.5h5.67v-2.97h3.02v5.8h-14.52v-2.65Z"/>
        <path class="cls-5" d="M292.97,90.59h.86v-.46c0-1.75-1.11-2.38-2.54-2.38-2.05,0-3.89,1.32-3.89,1.32l-1.27-2.38s2.13-1.7,5.45-1.7c3.7,0,5.67,1.92,5.67,5.42v5.51c0,.41.22.59.59.59h1.24v2.56h-3.24c-1.27,0-1.75-.67-1.75-1.46v-.16c0-.43.08-.7.08-.7h-.05s-1.16,2.65-4.35,2.65c-2.35,0-4.56-1.38-4.56-4.18,0-4.21,5.53-4.64,7.75-4.64ZM290.68,96.85c1.86,0,3.19-2,3.19-3.73v-.46h-.57c-1.35,0-4.62.22-4.62,2.29,0,1.03.73,1.89,2,1.89Z"/>
        <path class="cls-5" d="M301.59,82.49h-2.11v-2.56h5.53v5.97c0,.67-.05,1.16-.05,1.16h.05s1.24-2.05,4.13-2.05c3.72,0,6.13,2.94,6.13,7.21s-2.7,7.21-6.34,7.21c-3,0-4.1-2.19-4.1-2.19h-.05s.05.49.05,1.03v.84h-3.24v-16.6ZM308.34,96.53c1.89,0,3.48-1.54,3.48-4.26s-1.4-4.32-3.43-4.32c-1.78,0-3.46,1.3-3.46,4.35,0,2.13,1.11,4.24,3.4,4.24Z"/>
        <path class="cls-5" d="M324.46,85c4.21,0,7.58,3,7.58,7.21s-3.37,7.21-7.56,7.21-7.58-2.97-7.58-7.21,3.37-7.21,7.56-7.21ZM324.48,96.5c2.21,0,4.08-1.73,4.08-4.29s-1.86-4.29-4.08-4.29-4.1,1.75-4.1,4.29,1.86,4.29,4.1,4.29Z"/>
        <path class="cls-5" d="M333.93,96.53h2v-8.04c0-.38-.22-.59-.59-.59h-1.54v-2.56h3.59c1.21,0,1.83.51,1.83,1.67v.81c0,.51-.05.86-.05.86h.05c.62-1.97,2.27-3.54,4.37-3.54.32,0,.62.05.62.05v3.37s-.35-.05-.84-.05c-2.78,0-4.02,2.43-4.02,5.02v3h1.97v2.56h-7.4v-2.56Z"/>
        <path class="cls-5" d="M359.42,90.59h.86v-.46c0-1.75-1.11-2.38-2.54-2.38-2.05,0-3.89,1.32-3.89,1.32l-1.27-2.38s2.13-1.7,5.45-1.7c3.7,0,5.67,1.92,5.67,5.42v5.51c0,.41.22.59.59.59h1.24v2.56h-3.24c-1.27,0-1.75-.67-1.75-1.46v-.16c0-.43.08-.7.08-.7h-.05s-1.16,2.65-4.35,2.65c-2.35,0-4.56-1.38-4.56-4.18,0-4.21,5.53-4.64,7.75-4.64ZM357.13,96.85c1.86,0,3.19-2,3.19-3.73v-.46h-.57c-1.35,0-4.62.22-4.62,2.29,0,1.03.73,1.89,2,1.89Z"/>
        <path class="cls-5" d="M367.14,96.53h2v-8.04c0-.38-.22-.59-.59-.59h-1.54v-2.56h3.62c1.21,0,1.78.57,1.78,1.54v.62c0,.3-.05.59-.05.59h.05c.16-.43,1.62-3.08,5.08-3.08,2.94,0,4.62,1.59,4.62,5.24v6.29h2v2.56h-5.4v-8.15c0-1.67-.46-2.81-2.19-2.81-2.48,0-3.94,2.38-3.94,4.78v3.62h1.97v2.56h-7.4v-2.56Z"/>
        <path class="cls-5" d="M391.71,85c2.94,0,3.97,1.94,3.97,1.94h.05s-.05-.41-.05-.97v-3.48h-2.13v-2.56h5.53v16.01c0,.41.22.59.59.59h1.24v2.56h-3.24c-1.24,0-1.75-.67-1.75-1.46v-.16c0-.38.08-.62.08-.62h-.05s-1.08,2.56-4.51,2.56c-3.67,0-6.02-2.94-6.02-7.21s2.56-7.21,6.29-7.21ZM392.28,96.53c1.81,0,3.48-1.3,3.48-4.24,0-2.24-1.11-4.35-3.37-4.35-1.94,0-3.51,1.54-3.51,4.27s1.4,4.32,3.4,4.32Z"/>
        <path class="cls-5" d="M409.32,96.45h2.29v-13.85h-2.29v-2.67h14.22v4.94h-3.02v-2.11h-5.37v5.26h6.32v2.83h-6.32v5.4h5.78v-2.16h3.02v4.99h-14.63v-2.65Z"/>
        <path class="cls-5" d="M426.22,96.53h2v-8.07c0-.38-.22-.57-.59-.57h-1.54v-2.56h3.59c1.21,0,1.81.57,1.81,1.54v.62c0,.3-.05.59-.05.59h.05c.7-1.4,2.43-3.08,4.7-3.08,1.92,0,3.29.89,3.83,3h.05c.76-1.62,2.59-3,4.78-3,2.78,0,4.43,1.62,4.43,5.24v6.29h2v2.56h-5.43v-8.21c0-1.57-.3-2.75-1.89-2.75-2.35,0-3.51,2.35-3.51,4.89v3.51h2v2.56h-5.4v-8.21c0-1.48-.24-2.75-1.86-2.75-2.43,0-3.54,2.56-3.54,5.05v3.35h1.97v2.56h-7.4v-2.56Z"/>
        <path class="cls-5" d="M454.54,101.93v-13.44c0-.38-.22-.59-.59-.59h-1.54v-2.56h3.54c1.27,0,1.7.59,1.7,1.3v.08c0,.32-.03.62-.03.62h.05s1.19-2.32,4.43-2.32c3.73,0,6.1,2.94,6.1,7.21s-2.67,7.21-6.29,7.21c-2.73,0-3.97-1.94-3.97-1.94h-.05s.08.49.08,1.19v3.27h2v2.56h-7.42v-2.56h2ZM461.29,96.53c1.89,0,3.46-1.54,3.46-4.26s-1.4-4.32-3.43-4.32c-1.78,0-3.46,1.3-3.46,4.35,0,2.13,1.19,4.24,3.43,4.24Z"/>
        <path class="cls-5" d="M470.93,82.49h-2.13v-2.56h5.53v14.58c0,1.24.27,1.89,1.4,1.89.38,0,.65-.03.65-.03v2.75s-.57.08-1.24.08c-2.19,0-4.21-.73-4.21-4.48v-12.23Z"/>
        <path class="cls-5" d="M485.43,85c4.21,0,7.58,3,7.58,7.21s-3.37,7.21-7.56,7.21-7.58-2.97-7.58-7.21,3.37-7.21,7.56-7.21ZM485.46,96.5c2.21,0,4.08-1.73,4.08-4.29s-1.86-4.29-4.08-4.29-4.1,1.75-4.1,4.29,1.86,4.29,4.1,4.29Z"/>
        <path class="cls-5" d="M497.5,101.96c1.11,0,2-.59,2.43-1.59l.38-.86-4.72-11.61h-1.65v-2.56h6.77v2.56h-1.62l2.51,6.96c.24.67.3,1.43.3,1.43h.08s.11-.76.38-1.43l2.48-6.96h-1.59v-2.56h6.5v2.56h-1.57l-5.08,12.98c-1.05,2.73-3.1,3.89-5.45,3.89-2,0-3.35-.95-3.35-.95l1.11-2.51s.81.65,2.08.65Z"/>
        <path class="cls-5" d="M511,96.53h2v-8.07c0-.38-.22-.57-.59-.57h-1.54v-2.56h3.59c1.21,0,1.81.57,1.81,1.54v.62c0,.3-.05.59-.05.59h.05c.7-1.4,2.43-3.08,4.7-3.08,1.92,0,3.29.89,3.83,3h.05c.76-1.62,2.59-3,4.78-3,2.78,0,4.43,1.62,4.43,5.24v6.29h2v2.56h-5.43v-8.21c0-1.57-.3-2.75-1.89-2.75-2.35,0-3.51,2.35-3.51,4.89v3.51h2v2.56h-5.4v-8.21c0-1.48-.24-2.75-1.86-2.75-2.43,0-3.54,2.56-3.54,5.05v3.35h1.97v2.56h-7.4v-2.56Z"/>
        <path class="cls-5" d="M544.34,85c3.97,0,6.13,2.89,6.13,6.53,0,.4-.08,1.16-.08,1.16h-9.53c.22,2.54,2.05,3.83,4.13,3.83,2.24,0,4-1.46,4-1.46l1.32,2.43s-2.11,1.92-5.56,1.92c-4.56,0-7.4-3.29-7.4-7.21,0-4.24,2.86-7.21,6.99-7.21ZM546.93,90.67c-.05-1.89-1.21-3.02-2.67-3.02-1.75,0-3,1.21-3.32,3.02h5.99Z"/>
        <path class="cls-5" d="M552.44,96.53h2v-8.04c0-.38-.22-.59-.59-.59h-1.54v-2.56h3.62c1.21,0,1.78.57,1.78,1.54v.62c0,.3-.05.59-.05.59h.05c.16-.43,1.62-3.08,5.08-3.08,2.94,0,4.62,1.59,4.62,5.24v6.29h2v2.56h-5.4v-8.15c0-1.67-.46-2.81-2.19-2.81-2.48,0-3.94,2.38-3.94,4.78v3.62h1.97v2.56h-7.4v-2.56Z"/>
        <path class="cls-5" d="M572.4,87.89h-2.11v-2.56h2.21v-3.75h3.32v3.75h3.13v2.56h-3.13v5.8c0,2.35,1.78,2.67,2.75,2.67.38,0,.62-.03.62-.03v2.81s-.43.08-1.05.08c-1.94,0-5.75-.57-5.75-5.18v-6.15Z"/>
      </g>
      <g>
        <g>
          <g>
            <path class="cls-4" d="M236.36,51.09c.01-.49.04-.98.04-1.48C236.4,22.28,214.24.12,186.9.12s-49.5,22.16-49.5,49.5c0,.5.02.98.04,1.48l49.46,20.09,49.46-20.09Z"/>
            <path class="cls-3" d="M186.9,74.18l-.52-.21-48.76-19.8c2.3,25.21,23.48,44.95,49.28,44.95s46.99-19.75,49.28-44.95l-49.28,20.01Z"/>
          </g>
          <g>
            <path class="cls-8" d="M171.13,77.36c1.67,0,2.9.52,4.03,1.55.15.13.15.33.02.47l-1.3,1.35c-.12.12-.3.12-.42,0-.62-.55-1.43-.85-2.25-.85-1.88,0-3.27,1.57-3.27,3.43s1.4,3.38,3.28,3.38c.78,0,1.63-.28,2.23-.8.12-.1.33-.1.43.02l1.3,1.38c.12.12.1.33-.02.45-1.13,1.1-2.57,1.62-4.05,1.62-3.33,0-6.02-2.65-6.02-5.98s2.68-6.02,6.02-6.02Z"/>
            <path class="cls-8" d="M178.18,77.85c0-.17.13-.32.3-.32h4.07c3.22,0,5.85,2.62,5.85,5.81s-2.63,5.85-5.85,5.85h-4.07c-.17,0-.3-.15-.3-.32v-11.03ZM182.37,86.73c1.88,0,3.25-1.48,3.25-3.38s-1.37-3.37-3.25-3.37h-1.6v6.75h1.6Z"/>
            <path class="cls-8" d="M191.42,77.85c0-.17.13-.32.32-.32h1.98c.17,0,.32.15.32.32v8.9h3.97c.18,0,.32.15.32.32v1.82c0,.17-.13.32-.32.32h-6.26c-.18,0-.32-.15-.32-.32v-11.03Z"/>
            <path class="cls-8" d="M200.94,77.85c0-.17.13-.32.32-.32h6.9c.18,0,.32.15.32.32v1.82c0,.17-.13.32-.32.32h-4.62v2.07h3.8c.17,0,.32.15.32.32v1.82c0,.18-.15.32-.32.32h-3.8v2.25h4.62c.18,0,.32.15.32.32v1.82c0,.17-.13.32-.32.32h-6.9c-.18,0-.32-.15-.32-.32v-11.03Z"/>
          </g>
        </g>
        <g>
          <polygon class="cls-8" points="190.04 16.24 184.71 26.73 181.21 28.05 181.21 14.24 185.89 12.26 190.04 16.24"/>
          <polygon class="cls-8" points="178.45 16.86 178.45 29.08 171.22 31.79 171.22 20.83 178.45 16.86"/>
          <polygon class="cls-8" points="168.47 24.33 168.47 32.84 164.39 34.36 164.39 26.31 168.47 24.33"/>
          <path class="cls-8" d="M192.44,40.14c0,.4-.04.79-.14,1.17-.52,2.5-2.74,4.37-5.4,4.37s-4.88-1.87-5.42-4.37c-.1-.38-.14-.77-.14-1.17h-16.95v2.22c0,.24.2.46.44.48l5.1.99c.44,2,1.23,3.95,2.4,5.74l-2.62,3.87c-.16.2-.16.48.02.65l3.14,3.14c.18.18.46.18.64.04l3.89-2.62c1.81,1.19,3.77,2,5.82,2.44l.99,5.1c.02.24.24.44.48.44h4.45c.24,0,.46-.2.48-.44l.99-5.1c2-.44,3.95-1.23,5.74-2.4l3.85,2.62c.2.16.48.14.66-.04l3.14-3.12c.18-.18.2-.46.04-.66l-2.6-3.85c1.19-1.81,1.99-3.79,2.44-5.82l5.1-.99c.24-.02.44-.24.44-.48v-2.22h-16.95Z"/>
          <polygon class="cls-8" points="209.39 37.38 164.39 37.38 186.6 29.06 192.15 18.15 193.99 14.54 199.08 27.99 203.06 20.74 209.39 37.38"/>
        </g>
      </g>
      <g>
        <path class="cls-5" d="M284.06,6.01c1.95,0,3.9.71,5.37,2.03.28.28.72.28,1,0l3.1-3.22c.32-.32.32-.79-.04-1.12C290.78,1.24,287.84,0,283.86,0c-7.96,0-14.35,6.4-14.35,14.35s6.4,14.27,14.35,14.27c3.54,0,6.96-1.23,9.66-3.86.28-.28.32-.79.04-1.08l-3.1-3.3c-.24-.28-.76-.28-1.04-.04-1.43,1.23-3.46,1.91-5.33,1.91-4.49,0-7.84-3.66-7.84-8.08s3.3-8.19,7.8-8.19"/>
        <path class="cls-5" d="M319.24,0c-7.95,0-14.27,6.4-14.27,14.36s6.32,14.27,14.27,14.27,14.31-6.32,14.31-14.27-6.36-14.36-14.31-14.36M319.24,22.28c-4.33,0-7.91-3.58-7.91-7.92s3.58-7.99,7.91-7.99,7.95,3.62,7.95,7.99-3.57,7.92-7.95,7.92"/>
        <path class="cls-5" d="M362.66,22.39h-9.59V1.16c0-.41-.36-.76-.75-.76h-4.74c-.44,0-.75.35-.75.76v26.32c0,.4.31.75.75.75h15.08c.44,0,.76-.36.76-.75v-4.33c0-.4-.32-.75-.76-.75"/>
        <path class="cls-5" d="M388.63,0c-7.96,0-14.28,6.4-14.28,14.36s6.32,14.27,14.28,14.27,14.32-6.32,14.32-14.27-6.36-14.36-14.32-14.36M388.63,22.28c-4.34,0-7.92-3.58-7.92-7.92s3.58-7.99,7.92-7.99,7.96,3.62,7.96,7.99-3.58,7.92-7.96,7.92"/>
        <path class="cls-5" d="M432.46,16.99c3.46-1.4,5.88-4.34,5.88-8,0-4.73-3.9-8.59-8.66-8.59h-11.9c-.45,0-.76.35-.76.75v26.32c0,.4.31.75.76.75h4.73c.39,0,.76-.36.76-.75v-10.14h2.74l5.68,10.53c.07.16.32.36.63.36h5.29c.68,0,.95-.63.68-1.15l-5.84-10.1ZM429.16,12.29h-5.88v-6.2h5.88c1.63,0,3.02,1.35,3.02,3.02s-1.39,3.18-3.02,3.18"/>
        <path class="cls-5" d="M502.51.4h-9.7c-.39,0-.72.35-.72.75v26.32c0,.4.32.75.72.75h9.7c7.67,0,13.95-6.24,13.95-13.96s-6.28-13.87-13.95-13.87M502.11,22.35h-3.82V6.25h3.82c4.49,0,7.75,3.53,7.75,8.03s-3.27,8.07-7.75,8.07"/>
        <path class="cls-5" d="M543.2,0c-7.96,0-14.28,6.4-14.28,14.36s6.32,14.27,14.28,14.27,14.31-6.32,14.31-14.27-6.36-14.36-14.31-14.36M543.2,22.28c-4.34,0-7.92-3.58-7.92-7.92s3.58-7.99,7.92-7.99,7.95,3.62,7.95,7.99-3.58,7.92-7.95,7.92"/>
        <path class="cls-5" d="M465.81.44c-.12-.24-.39-.44-.67-.44h-.4c-.28,0-.56.2-.68.44l-12.45,26.75c-.24.52.08,1.04.68,1.04h4.37c.79,0,1.15-.24,1.43-.95l1.43-3.18h10.84l1.43,3.14c.4.86.57.99,1.39.99h4.41c.6,0,.92-.51.68-1.04L465.81.44ZM461.3,19.38l3.62-8.34,3.66,8.34h-7.28Z"/>
      </g>
      <rect class="cls-5" x="252.2" y=".12" width="1.3" height="99"/>
      <g>
        <g>
          <path class="cls-1" d="M43.48,80.64c-1.52-1.89-2.9-3.89-4.14-6-.07-.1-.16-.22-.23-.32-.9-1.66-1.77-3.34-2.52-5.07-.22-.52-.44-1.04-.64-1.57-2.59-6.64-3.7-13.5-3.36-20.62.41-7.75,2.56-15.02,6.39-21.76.03-.1.06-.22.12-.32,1.06-1.71,2.14-3.38,3.35-4.98-.55-1-1.14-2.04-1.78-3.19C36.76,9.85,34.78,6.48,30.84,0c-3.94,6.59-5.92,10.01-9.84,17.09-3.93,6.85-5.88,10.41-9.73,17.76,3.17-.83,4.78-1.15,8-1.64-.82,2.01-1.23,3.02-2.05,5.06-4.66,9.25-9.1,18.66-13.28,28.14,3.28-1.21,4.94-1.72,8.31-2.55-4.21,10.2-8.29,20.42-12.25,30.72,21.66-7.47,39.36-7.57,61.07-.19-4.46-2.08-8.64-4.87-12.52-8.38-1.84-1.67-3.51-3.47-5.06-5.39Z"/>
          <path class="cls-6" d="M82.23,25.68c-7.19,0-13.94,3.17-18.53,8.68l-.12.14c-3.52,4.27-5.47,9.72-5.47,15.31,0,.24,0,.45.01.67l14.62-12.75,9.98,8.71,9.98-8.71,13.66,11.92c-.02-3.18-.64-6.25-1.85-9.13-3.75-9.02-12.49-14.85-22.26-14.85Z"/>
          <path class="cls-4" d="M39,25.3c-3.83,6.74-5.99,14.01-6.39,21.76-.35,7.12.76,13.98,3.36,20.62.2.53.42,1.05.64,1.57l18.91-16.49c-.04-.34-.08-.68-.1-1.02-.05-.59-.07-1.23-.07-1.93,0-6.23,2.18-12.31,6.14-17.11l.13-.14c5.09-6.11,12.62-9.64,20.63-9.64,10.9,0,20.64,6.5,24.82,16.55,0,0,0,0,0,.01,6.67-2.7,13.32-5.39,19.99-8.07.45-.19.58-.32.35-.82-.81-1.9-1.77-3.76-2.75-5.6-.09-.16-.19-.32-.29-.45C115.35,10.05,102.35,2.02,85.36.44c-4.87-.45-9.71,0-14.48,1.13-11.29,2.66-20.56,8.55-27.8,17.62-.21.27-.41.54-.62.81-1.2,1.6-2.28,3.27-3.35,4.98-.06.1-.09.22-.12.32Z"/>
          <path class="cls-2" d="M72.73,37.74l-14.62,12.75c.01.36.03.72.05,1.05.26,3.79,1.44,7.5,3.4,10.74.42.67.76,1.18,1.09,1.64l20.05-17.47-9.98-8.71Z"/>
          <path class="cls-7" d="M59.23,63.78c-2.05-3.39-3.31-7.16-3.73-11.02l-18.91,16.49c.75,1.74,1.62,3.42,2.52,5.07.07.1.16.22.23.32,1.24,2.1,2.62,4.11,4.14,6l.72-.63,16.36-14.27s-.05-.06-.07-.1c-.39-.53-.79-1.13-1.26-1.87Z"/>
          <path class="cls-3" d="M126.8,67.81c-6.54-2.66-13.08-5.28-19.63-7.92,0,0,0,0,0,0-.73,1.82-1.68,3.57-2.82,5.21-5.02,7.27-13.29,11.61-22.12,11.61s-16.61-4.1-21.67-10.97l-16.36,14.27-.72.63c1.55,1.92,3.23,3.72,5.06,5.39,3.88,3.51,8.06,6.29,12.52,8.38,6,2.8,12.52,4.33,19.54,4.56,5.09.19,10.1-.48,15-1.93,9.58-2.82,17.61-8.07,24.09-15.7.43-.51.84-1.02,1.25-1.55,1.33-1.74,2.54-3.57,3.68-5.47.95-1.74,1.87-3.5,2.63-5.34.06-.19.12-.32.16-.42l.06-.16-.06-.25c-.1-.13-.29-.19-.64-.35Z"/>
          <path class="cls-9" d="M82.71,46.45l19.16,16.71.28.24c.98-1.43,1.8-2.96,2.44-4.54,1.17-2.86,1.76-5.9,1.76-9.04,0-.05,0-.1,0-.15l-13.66-11.92-9.98,8.71Z"/>
          <path class="cls-3" d="M82.71,46.45l-20.05,17.47s.04.06.06.09c4.53,6.22,11.82,9.93,19.51,9.93s15.33-3.89,19.84-10.41c.03-.04.06-.09.08-.13l-.28-.24-19.16-16.71Z"/>
        </g>
        <g>
          <path class="cls-5" d="M111.4,93.94h-1.06c-.08,0-.13-.06-.13-.13v-.57c0-.07.06-.13.13-.13h3.03c.08,0,.13.06.13.13v.57c0,.07-.06.13-.13.13h-1.06v3.9c0,.07-.06.13-.13.13h-.64c-.07,0-.13-.06-.13-.13v-3.9Z"/>
          <path class="cls-5" d="M115.35,93.15c0-.06.05-.1.12-.1h.11c.06,0,.1.03.12.07l1.53,3.28h.02l1.53-3.28s.05-.07.12-.07h.11c.08,0,.12.05.12.1l.82,4.66c.02.1-.03.16-.12.16h-.63c-.06,0-.12-.06-.13-.1l-.41-2.63h-.02l-1.21,2.73s-.05.08-.12.08h-.12c-.06,0-.1-.03-.12-.08l-1.23-2.73h-.02l-.4,2.63s-.06.1-.12.1h-.62c-.09,0-.15-.06-.13-.16l.83-4.66Z"/>
        </g>
      </g>
    </g>
  </g>
</svg>